#!OML:ASF F:\VICON\USERDATA\INSTALL\rory3\rory3.ASF
:FULLY-SPECIFIED
:DEGREES
1620
root -1.73193 17.8203 -3.8148 -0.444011 10.4974 -1.5598
lowerback 4.90602 -2.81153 -2.13367
upperback -0.924688 -3.7957 2.54564
thorax -3.39195 -1.82313 4.11606
lowerneck -21.9941 -3.13845 -10.145
upperneck 24.9222 -2.58507 6.00793
head 12.0834 -1.33811 3.54306
rclavicle 5.43397e-015 -3.57812e-015
rhumerus 21.4377 -53.4363 -8.29611
rradius 39.447
rwrist 16.3611
rhand -42.5426 -11.4407
rfingers 7.12502
rthumb -15.4178 -40.8457
lclavicle 5.43397e-015 -3.57812e-015
lhumerus 32.5427 57.691 21.2404
lradius 41.908
lwrist 3.22862
lhand -23.2784 33.0638
lfingers 7.12502
lthumb 3.17428 63.0199
rfemur -13.1614 4.66654 24.3781
rtibia 30.3671
rfoot -11.3256 4.03522
rtoes 17.33
lfemur 7.83484 3.077 -14.9296
ltibia 29.6406
lfoot -9.17511 14.9438
ltoes -32.9954
1621
root -1.73797 17.829 -3.79334 -0.560213 10.548 -1.61223
lowerback 4.85005 -2.90849 -2.07284
upperback -0.882382 -3.91703 2.66917
thorax -3.30183 -1.88637 4.21295
lowerneck -21.9142 -3.05972 -10.0574
upperneck 24.8399 -2.47276 5.87783
head 12.0215 -1.29617 3.49469
rclavicle -4.03471e-014 2.74323e-014
rhumerus 23.2644 -52.9495 -8.95899
rradius 40.1099
rwrist 16.6699
rhand -42.7578 -11.3257
rfingers 7.12502
rthumb -15.6251 -40.7146
lclavicle -4.03471e-014 2.74323e-014
lhumerus 33.8591 56.9385 21.8883
lradius 42.6913
lwrist 3.37736
lhand -23.7126 32.9777
lfingers 7.12502
lthumb 2.75496 62.9397
rfemur -13.0134 4.92121 24.4583
rtibia 30.3523
rfoot -11.432 3.84993
rtoes 18.4429
lfemur 7.90812 3.09492 -14.7645
ltibia 29.7373
lfoot -8.85624 14.7346
ltoes -33.2791
1622
root -1.74169 17.8489 -3.76856 -0.609143 10.6377 -1.5732
lowerback 4.71753 -2.96627 -2.04608
upperback -0.847077 -3.9899 2.72567
thorax -3.18228 -1.92594 4.25111
lowerneck -21.8052 -3.08958 -10.039
upperneck 24.8305 -2.51049 5.79731
head 11.9991 -1.32313 3.45381
rclavicle 3.10446e-014 -1.31198e-014
rhumerus 24.8684 -52.4706 -9.41566
rradius 40.85
rwrist 17.0985
rhand -42.9675 -11.2661
rfingers 7.12502
rthumb -15.827 -40.6391
lclavicle 3.10446e-014 -1.31198e-014
lhumerus 35.2652 56.0311 22.5287
lradius 43.4873
lwrist 3.49573
lhand -24.2844 33.0613
lfingers 7.12502
lthumb 2.20273 63.0297
rfemur -12.9566 5.15904 24.3855
rtibia 30.3346
rfoot -11.4927 3.7086
rtoes 20.7223
lfemur 7.97089 3.03304 -14.7197
ltibia 29.799
lfoot -8.68122 14.475
ltoes -32.6865
1623
root -1.74404 17.8599 -3.74369 -0.599165 10.6841 -1.45746
lowerback 4.48413 -2.97008 -2.05658
upperback -0.804564 -3.99462 2.7065
thorax -3.00727 -1.93274 4.2202
lowerneck -21.6812 -3.13384 -10.0401
upperneck 24.8639 -2.60179 5.84305
head 11.997 -1.36016 3.45698
rclavicle 4.84118e-014 -2.50469e-014
rhumerus 26.4076 -52.1719 -9.8703
rradius 41.6005
rwrist 17.6167
rhand -43.1957 -11.1824
rfingers 7.12502
rthumb -16.0468 -40.5379
lclavicle 4.84118e-014 -2.50469e-014
lhumerus 36.7491 54.9971 23.0624
lradius 44.3155
lwrist 3.38799
lhand -24.4946 33.9568
lfingers 7.12502
lthumb 1.99964 63.9272
rfemur -12.8998 5.29309 24.2536
rtibia 30.3318
rfoot -11.5563 3.65639
rtoes 22.2447
lfemur 7.98545 3.05486 -14.7657
ltibia 29.8577
lfoot -8.44632 14.2616
ltoes -32.3668
1624
root -1.74725 17.8612 -3.72478 -0.661301 10.6925 -1.32829
lowerback 4.40224 -2.98275 -2.12654
upperback -0.769058 -4.0146 2.72484
thorax -2.91677 -1.94391 4.27271
lowerneck -21.5016 -3.16783 -10.0979
upperneck 24.9048 -2.6665 5.89478
head 11.9856 -1.39093 3.4766
rclavicle 2.55407e-014 -1.59028e-015
rhumerus 28.0347 -51.7937 -10.282
rradius 42.3831
rwrist 18.1894
rhand -43.2926 -11.013
rfingers 7.12502
rthumb -16.1402 -40.3609
lclavicle 2.55407e-014 -1.59028e-015
lhumerus 38.0926 53.9398 23.5028
lradius 45.202
lwrist 3.00705
lhand -24.5854 34.0926
lfingers 7.12502
lthumb 1.912 64.0637
rfemur -12.7397 5.31946 24.157
rtibia 30.3258
rfoot -11.5919 3.64937
rtoes 22.4444
lfemur 8.00564 3.16535 -14.8066
ltibia 30.0113
lfoot -8.19515 14.1288
ltoes -32.4259
